<svg width="120" height="120" viewBox="0 0 120 120" fill="none" xmlns="http://www.w3.org/2000/svg">
<path d="M100 0H20C8.95431 0 0 8.95431 0 20V100C0 111.046 8.95431 120 20 120H100C111.046 120 120 111.046 120 100V20C120 8.95431 111.046 0 100 0Z" fill="url(#paint0_linear_205_385)"/>
<path d="M54.689 45.8163H26.0885C24.1437 45.821 22.2799 46.5957 20.9046 47.9709C19.5294 49.3461 18.7547 51.21 18.75 53.1548V64.7278H54.6352L54.689 45.8163Z" fill="white"/>
<path d="M98.7918 64.7278V53.1548C98.787 51.21 98.0124 49.3461 96.6371 47.9709C95.2619 46.5957 93.3981 45.821 91.4533 45.8163H62.781V64.7278H98.7918Z" fill="white"/>
<path d="M18.75 72.8201V84.411C18.7547 86.3558 19.5294 88.2197 20.9046 89.5949C22.2799 90.9701 24.1437 91.7448 26.0885 91.7495H54.689V72.8201H18.75Z" fill="white"/>
<path d="M62.781 91.7495H91.3815C93.3263 91.7448 95.1902 90.9701 96.5654 89.5949C97.9406 88.2197 98.7153 86.3558 98.72 84.411V72.838H62.8349L62.781 91.7495Z" fill="white"/>
<path d="M50.8311 30.009C49.7615 29.958 48.6927 30.1247 47.6894 30.4988C46.6861 30.873 45.7691 31.447 44.9941 32.1859C44.2191 32.9249 43.6022 33.8134 43.1806 34.7978C42.7591 35.7822 42.5417 36.8419 42.5417 37.9127C42.5417 38.9835 42.7591 40.0432 43.1806 41.0275C43.6022 42.0119 44.2191 42.9005 44.9941 43.6394C45.7691 44.3783 46.6861 44.9523 47.6894 45.3265C48.6927 45.7007 49.7615 45.8674 50.8311 45.8164H58.7438V37.9037C58.739 35.8082 57.9033 33.8002 56.4199 32.3202C54.9365 30.8401 52.9266 30.009 50.8311 30.009" fill="white"/>
<path d="M66.6387 30.009C67.7083 29.958 68.7771 30.1247 69.7804 30.4988C70.7837 30.873 71.7006 31.447 72.4756 32.1859C73.2506 32.9249 73.8676 33.8134 74.2891 34.7978C74.7107 35.7822 74.928 36.8419 74.928 37.9127C74.928 38.9835 74.7107 40.0432 74.2891 41.0275C73.8676 42.0119 73.2506 42.9005 72.4756 43.6394C71.7006 44.3783 70.7837 44.9523 69.7804 45.3265C68.7771 45.7007 67.7083 45.8674 66.6387 45.8164H58.7439V37.9037C58.7439 35.8099 59.5757 33.8018 61.0562 32.3213C62.5368 30.8407 64.5448 30.009 66.6387 30.009Z" fill="white"/>
<defs>
<linearGradient id="paint0_linear_205_385" x1="127.269" y1="69.9356" x2="7.64268" y2="69.9356" gradientUnits="userSpaceOnUse">
<stop stop-color="#EC7534"/>
<stop offset="1" stop-color="#F0901E"/>
</linearGradient>
</defs>
</svg>
