<svg width="645" height="200" viewBox="0 0 645 200" fill="none" xmlns="http://www.w3.org/2000/svg">
<g clip-path="url(#clip0_221_626)">
<path d="M198.199 37.2789C189.117 31.4425 179.479 27.0601 170.063 23.7734C170.694 29.8723 174.302 75.0489 148.013 114.737C126.578 147.095 103.094 160.02 85.0349 166.992C92.8056 173.722 101.58 180.119 111.485 185.996L111.581 186.041L111.667 185.996C201.252 132.873 198.199 37.2789 198.199 37.2789Z" fill="#6962B1"/>
<path style="mix-blend-mode:multiply" d="M198.199 37.2789C189.117 31.4425 179.479 27.0601 170.063 23.7734C170.694 29.8723 174.302 75.0489 148.013 114.737C126.578 147.095 103.094 160.02 85.0349 166.992C92.8056 173.722 101.58 180.119 111.485 185.996L111.581 186.041L111.667 185.996C201.252 132.873 198.199 37.2789 198.199 37.2789Z" fill="url(#paint0_linear_221_626)"/>
<path d="M24.9736 37.2789C34.0562 31.4425 43.6939 27.0601 53.1095 23.7734C52.4788 29.8723 48.871 75.0489 75.1601 114.737C96.595 147.095 120.084 160.02 138.133 166.992C130.362 173.722 121.592 180.119 111.682 185.996L111.586 186.041L111.501 185.996C21.9208 132.873 24.9736 37.2789 24.9736 37.2789Z" fill="#514A99"/>
<path style="mix-blend-mode:multiply" d="M24.9736 37.2789C34.0562 31.4425 43.6939 27.0601 53.1095 23.7734C52.4788 29.8723 48.871 75.0489 75.1601 114.737C96.595 147.095 120.084 160.02 138.133 166.992C130.362 173.722 121.592 180.119 111.682 185.996L111.586 186.041L111.501 185.996C21.9208 132.873 24.9736 37.2789 24.9736 37.2789Z" fill="url(#paint1_linear_221_626)"/>
<path d="M169.634 53.1523C171.32 38.0262 170.391 26.8481 170.104 24.0309C170.104 24.0309 170.094 23.9451 170.083 23.8088C140.615 13.5143 113.277 13.9283 111.586 13.9636C109.356 13.9182 62.4647 13.2063 24.9636 37.3042C24.9636 37.3042 24.565 49.7898 28.2838 68.2432C43.7444 56.2169 66.9808 42.974 105.279 40.8333C130.715 39.4095 153.235 46.0133 169.629 53.1473L169.634 53.1523Z" fill="#7770BF"/>
<path style="mix-blend-mode:multiply" d="M169.655 53.1726C171.34 38.0514 170.411 26.8684 170.124 24.0511C170.124 24.0511 170.114 23.9653 170.099 23.829C140.636 13.5345 113.297 13.9536 111.607 13.9839C109.376 13.9384 62.4898 13.2265 24.9887 37.3244C24.9887 37.3244 24.5901 49.8101 28.3089 68.2634C43.7696 56.2422 67.0059 42.9993 105.304 40.8535C130.741 39.4298 153.26 46.0336 169.655 53.1726Z" fill="url(#paint2_linear_221_626)"/>
</g>
<g clip-path="url(#clip1_221_626)">
<path d="M228 51.0365C228 47.6636 230.676 45 234.052 45C237.429 45 240.145 47.6636 240.145 51.0365C240.145 54.4095 237.469 57.0323 234.052 57.0323C230.636 57.0323 228 54.3686 228 51.0365ZM228.615 63.2015H239.535V110.269H228.615V63.2066V63.2015Z" fill="#3D3D3D"/>
<path d="M270.8 46.1991C283.384 46.1991 292.112 54.8585 292.112 67.646C292.112 80.4335 283.122 89.0928 270.316 89.0928H257.511V110.274H246.198V46.1991H270.795H270.8ZM257.511 79.8568H267.771C275.885 79.8568 280.617 75.4175 280.617 67.646C280.617 59.8745 275.925 55.5678 267.812 55.5678H257.506V79.8568H257.511Z" fill="#3D3D3D"/>
<path d="M297.771 46.1991H308.692V110.269H297.771V46.1991Z" fill="#3D3D3D"/>
<path d="M314.351 96.8184C314.351 88.4703 320.711 83.4543 332.025 82.745L344.301 82.0357V78.6628C344.301 73.7336 341.01 70.8913 335.618 70.8913C330.226 70.8913 327.157 73.4223 326.451 77.331H316.322C316.806 68.539 324.214 62.232 336.056 62.232C347.899 62.232 355.09 68.4063 355.09 77.8617V110.274H344.568V102.768H344.346C341.67 107.876 335.84 111.024 329.878 111.024C320.888 111.024 314.356 105.299 314.356 96.8184H314.351ZM344.301 92.8229V89.2255L333.557 89.8939C328.296 90.2511 325.267 92.6443 325.267 96.3744C325.267 100.105 328.427 102.681 333.159 102.681C339.342 102.681 344.296 98.5074 344.296 92.8229H344.301Z" fill="#3D3D3D"/>
<path d="M392.71 79.9895C391.833 74.9735 388.371 71.1975 382.535 71.1975C375.651 71.1975 371.222 77.0605 371.222 86.7405C371.222 96.4204 375.692 102.283 382.621 102.283C388.144 102.283 391.742 99.084 392.75 93.7567H403.056C402.179 104.279 394.156 111.208 382.49 111.208C368.898 111.208 360.125 102.018 360.125 86.7405C360.125 71.4628 368.893 62.232 382.399 62.232C394.675 62.232 402.265 70.0902 403.011 79.9946H392.705L392.71 79.9895Z" fill="#3D3D3D"/>
<path d="M448.754 96.1958C447.353 105.075 439.194 111.203 428.188 111.203C414.244 111.203 405.823 101.921 405.823 86.9139C405.823 71.9068 414.329 62.2269 427.749 62.2269C441.17 62.2269 449.192 71.5088 449.192 85.8015V89.399H416.698V90.0674C416.698 97.6144 421.259 102.676 428.405 102.676C433.489 102.676 437.35 100.099 438.534 96.1958H448.749H448.754ZM416.789 82.1225H438.494C438.272 75.4634 434.064 70.7995 427.795 70.7995C421.526 70.7995 417.227 75.5501 416.789 82.1225Z" fill="#3D3D3D"/>
<path d="M453.622 78.2138C453.622 58.0987 464.805 45.1327 482.125 45.1327C495.893 45.1327 506.375 53.6134 508.391 66.4009H500.408C498.393 58.0069 491.156 52.501 482.125 52.501C469.758 52.501 461.736 62.6249 461.736 78.2087C461.736 93.7924 469.673 103.962 482.171 103.962C491.468 103.962 498.131 99.431 500.414 91.6187H508.396C505.503 104.273 496.12 111.331 482.13 111.331C464.679 111.331 453.627 98.4972 453.627 78.2087L453.622 78.2138Z" fill="#9683BA"/>
<path d="M512.866 97.2164C512.866 89.3122 518.873 84.3422 529.396 83.7196L542.463 82.9644V79.1016C542.463 73.4631 538.779 70.0902 532.465 70.0902C526.589 70.0902 522.905 72.8865 521.942 77.4177H514.574C515.099 69.4268 521.851 63.2984 532.641 63.2984C543.43 63.2984 550.093 69.1615 550.093 78.3515V110.274H542.856V102.324H542.68C539.958 107.606 534.173 111.07 528.035 111.07C518.959 111.07 512.861 105.519 512.861 97.2164H512.866ZM542.463 92.7311V88.955L530.272 89.7103C524.134 90.1083 520.627 92.8637 520.627 97.2164C520.627 101.569 524.265 104.498 529.748 104.498C536.94 104.498 542.463 99.3902 542.463 92.7311V92.7311Z" fill="#9683BA"/>
<path d="M557.994 64.0945H565.186V71.6414H565.362C566.854 66.5336 571.062 63.2933 576.414 63.2933C577.729 63.2933 578.868 63.5179 579.483 63.6046V71.1107C578.868 70.8862 577.245 70.6668 575.406 70.6668C569.484 70.6668 565.629 74.9735 565.629 81.4999V110.274H557.999V64.0945H557.994Z" fill="#9683BA"/>
<path d="M619.431 97.0378C618.115 105.121 610.395 111.07 600.442 111.07C587.375 111.07 579.438 101.88 579.438 87.3579C579.438 72.8355 587.506 63.2933 600.089 63.2933C612.673 63.2933 620 72.3507 620 86.3373V89.2663H587.289V89.7103C587.289 98.5482 592.419 104.36 600.618 104.36C606.409 104.36 610.662 101.385 611.932 97.0327H619.431V97.0378ZM587.334 83.2298H612.108C611.932 75.5042 607.155 69.9983 599.963 69.9983C592.772 69.9983 587.818 75.5501 587.334 83.2298Z" fill="#9683BA"/>
<path d="M242.877 136.62C242.408 134.482 240.765 132.722 237.903 132.722C234.536 132.722 232.253 135.544 232.253 140.014C232.253 144.484 234.571 147.306 237.938 147.306C240.594 147.306 242.332 145.887 242.892 143.519H246.092C245.588 147.438 242.332 150.204 237.918 150.204C232.53 150.204 228.942 146.362 228.942 140.019C228.942 133.676 232.515 129.834 237.882 129.834C242.745 129.834 245.643 133.089 246.056 136.631H242.877V136.62Z" fill="#3D3D3D"/>
<path d="M248.133 140.009C248.133 133.722 251.761 129.824 257.148 129.824C262.535 129.824 266.144 133.722 266.144 140.009C266.144 146.295 262.515 150.194 257.148 150.194C251.781 150.194 248.133 146.275 248.133 140.009V140.009ZM262.833 140.009C262.833 135.37 260.59 132.717 257.148 132.717C253.706 132.717 251.443 135.37 251.443 140.009C251.443 144.647 253.706 147.3 257.148 147.3C260.59 147.3 262.833 144.647 262.833 140.009Z" fill="#3D3D3D"/>
<path d="M269.414 130.16H272.483V133.304H272.559C273.476 131.222 275.457 129.818 278.077 129.818C280.698 129.818 282.698 131.181 283.54 133.569H283.616C284.699 131.222 286.982 129.818 289.713 129.818C293.563 129.818 296.053 132.355 296.053 136.258V149.852H292.797V137.013C292.797 134.324 291.321 132.732 288.756 132.732C286.191 132.732 284.361 134.666 284.361 137.335V149.852H281.106V136.651C281.106 134.283 279.534 132.732 277.125 132.732C274.544 132.732 272.675 134.778 272.675 137.503V149.852H269.419V130.16H269.414Z" fill="#3D3D3D"/>
<path d="M323.367 142.034H312.633L309.922 149.857H306.389L316.337 122.532H319.668L329.616 149.857H326.083L323.372 142.034H323.367ZM313.626 139.136H322.379L318.06 126.675H317.949L313.631 139.136H313.626Z" fill="#3D3D3D"/>
<path d="M349.96 140.009C349.96 146.183 346.614 150.194 341.71 150.194C338.924 150.194 336.681 148.811 335.522 146.652H335.446V156.424H332.191V130.16H335.275V133.492H335.351C336.55 131.278 338.813 129.818 341.635 129.818C346.589 129.818 349.955 133.834 349.955 140.004L349.96 140.009ZM346.629 140.009C346.629 135.559 344.462 132.717 341 132.717C337.538 132.717 335.426 135.63 335.426 140.009C335.426 144.387 337.669 147.3 341 147.3C344.331 147.3 346.629 144.479 346.629 140.009Z" fill="#3D3D3D"/>
<path d="M371 140.009C371 146.183 367.654 150.194 362.75 150.194C359.963 150.194 357.721 148.811 356.562 146.652H356.486V156.424H353.231V130.16H356.315V133.492H356.39C357.59 131.278 359.853 129.818 362.675 129.818C367.628 129.818 370.995 133.834 370.995 140.004L371 140.009ZM367.669 140.009C367.669 135.559 365.502 132.717 362.04 132.717C358.578 132.717 356.466 135.63 356.466 140.009C356.466 144.387 358.709 147.3 362.04 147.3C365.371 147.3 367.669 144.479 367.669 140.009Z" fill="#3D3D3D"/>
<path d="M374.437 122.532H377.692V149.857H374.437V122.532Z" fill="#3D3D3D"/>
<path d="M398.188 144.213C397.628 147.658 394.338 150.199 390.089 150.199C384.516 150.199 381.129 146.28 381.129 140.085C381.129 133.89 384.571 129.824 389.938 129.824C395.305 129.824 398.43 133.686 398.43 139.651V140.902H384.48V141.09C384.48 144.856 386.668 147.341 390.165 147.341C392.634 147.341 394.448 146.071 394.988 144.218H398.188V144.213ZM384.501 138.325H395.068C394.993 135.028 392.957 132.681 389.888 132.681C386.819 132.681 384.707 135.049 384.501 138.325V138.325Z" fill="#3D3D3D"/>
<path d="M401.161 136.182C401.161 127.604 405.928 122.072 413.316 122.072C419.187 122.072 423.657 125.69 424.519 131.145H421.117C420.256 127.568 417.172 125.216 413.321 125.216C408.05 125.216 404.623 129.533 404.623 136.182C404.623 142.83 408.01 147.163 413.336 147.163C417.303 147.163 420.145 145.229 421.117 141.897H424.519C423.284 147.295 419.283 150.306 413.316 150.306C405.873 150.306 401.161 144.836 401.161 136.182Z" fill="#3D3D3D"/>
<path d="M427.195 144.29C427.195 140.917 429.755 138.799 434.245 138.534L439.819 138.212V136.564C439.819 134.161 438.247 132.722 435.556 132.722C433.051 132.722 431.479 133.916 431.065 135.845H427.926C428.153 132.436 431.03 129.824 435.631 129.824C440.232 129.824 443.074 132.324 443.074 136.243V149.857H439.99V146.469H439.915C438.756 148.724 436.286 150.199 433.671 150.199C429.8 150.199 427.2 147.831 427.2 144.29H427.195ZM439.819 142.376V140.769L434.618 141.09C431.998 141.259 430.506 142.432 430.506 144.29C430.506 146.147 432.058 147.397 434.396 147.397C437.466 147.397 439.819 145.219 439.819 142.381V142.376Z" fill="#3D3D3D"/>
<path d="M447.207 130.16H450.276V133.38H450.351C450.986 131.201 452.78 129.818 455.063 129.818C455.623 129.818 456.112 129.915 456.374 129.951V133.151C456.112 133.054 455.421 132.962 454.635 132.962C452.11 132.962 450.462 134.799 450.462 137.58V149.852H447.207V130.16V130.16Z" fill="#3D3D3D"/>
<path d="M474.173 144.213C473.613 147.658 470.323 150.199 466.074 150.199C460.501 150.199 457.114 146.28 457.114 140.085C457.114 133.89 460.556 129.824 465.923 129.824C471.29 129.824 474.415 133.686 474.415 139.651V140.902H460.466V141.09C460.466 144.856 462.653 147.341 466.15 147.341C468.619 147.341 470.434 146.071 470.973 144.218H474.173V144.213ZM460.486 138.325H471.053C470.978 135.028 468.942 132.681 465.873 132.681C462.804 132.681 460.692 135.049 460.486 138.325Z" fill="#3D3D3D"/>
<path d="M488.142 142.341C488.46 145.295 491.226 147.244 495.082 147.244C498.73 147.244 501.386 145.295 501.386 142.606C501.386 140.294 499.799 138.876 496.17 137.927L492.708 137.018C487.734 135.733 485.527 133.513 485.527 129.803C485.527 125.257 489.453 122.078 495.067 122.078C500.681 122.078 504.324 125.297 504.475 129.88H501.109C500.812 126.946 498.473 125.144 494.956 125.144C491.438 125.144 489.029 126.981 489.029 129.65C489.029 131.712 490.526 132.946 494.19 133.911L497.012 134.666C502.606 136.085 504.868 138.263 504.868 142.182C504.868 147.183 500.978 150.306 494.769 150.306C489.044 150.306 485.083 147.163 484.766 142.335H488.152L488.142 142.341Z" fill="#3D3D3D"/>
<path d="M524.386 144.213C523.827 147.658 520.536 150.199 516.288 150.199C510.714 150.199 507.328 146.28 507.328 140.085C507.328 133.89 510.77 129.824 516.137 129.824C521.504 129.824 524.628 133.686 524.628 139.651V140.902H510.679V141.09C510.679 144.856 512.866 147.341 516.363 147.341C518.833 147.341 520.647 146.071 521.186 144.218H524.386V144.213ZM510.699 138.325H521.267C521.191 135.028 519.155 132.681 516.086 132.681C513.017 132.681 510.906 135.049 510.699 138.325Z" fill="#3D3D3D"/>
<path d="M527.899 130.16H530.968V133.38H531.043C531.678 131.201 533.472 129.818 535.755 129.818C536.315 129.818 536.803 129.915 537.065 129.951V133.151C536.803 133.054 536.113 132.962 535.327 132.962C532.802 132.962 531.154 134.799 531.154 137.58V149.852H527.899V130.16V130.16Z" fill="#3D3D3D"/>
<path d="M548.51 149.857H545.179L538.018 130.165H541.44L546.807 146.356H546.883L552.27 130.165H555.656L548.51 149.857Z" fill="#3D3D3D"/>
<path d="M557.974 124.802C557.974 123.665 558.891 122.756 559.995 122.756C561.099 122.756 562.031 123.665 562.031 124.802C562.031 125.94 561.114 126.849 559.995 126.849C558.876 126.849 557.974 125.92 557.974 124.802ZM558.367 130.16H561.623V149.852H558.367V130.16Z" fill="#3D3D3D"/>
<path d="M578.994 136.62C578.525 134.482 576.882 132.722 574.02 132.722C570.654 132.722 568.371 135.544 568.371 140.014C568.371 144.484 570.689 147.306 574.055 147.306C576.711 147.306 578.45 145.887 579.009 143.519H582.209C581.705 147.438 578.45 150.204 574.035 150.204C568.648 150.204 565.06 146.362 565.06 140.019C565.06 133.676 568.633 129.834 574 129.834C578.863 129.834 581.761 133.089 582.174 136.631H578.994V136.62Z" fill="#3D3D3D"/>
<path d="M601.304 144.213C600.744 147.658 597.454 150.199 593.205 150.199C587.632 150.199 584.245 146.28 584.245 140.085C584.245 133.89 587.687 129.824 593.054 129.824C598.421 129.824 601.546 133.686 601.546 139.651V140.902H587.596V141.09C587.596 144.856 589.784 147.341 593.281 147.341C595.75 147.341 597.564 146.071 598.104 144.218H601.304V144.213ZM587.617 138.325H598.184C598.109 135.028 596.073 132.681 593.004 132.681C589.935 132.681 587.823 135.049 587.617 138.325Z" fill="#3D3D3D"/>
<path d="M611.74 129.824C615.762 129.824 618.715 132.247 618.866 135.579H615.762C615.535 133.686 614.023 132.513 611.63 132.513C609.236 132.513 607.684 133.707 607.684 135.426C607.684 136.789 608.712 137.697 610.919 138.269L613.928 139.008C617.853 140.014 619.274 141.453 619.274 144.346C619.274 147.775 616.074 150.199 611.534 150.199C607.27 150.199 604.297 147.852 603.959 144.366H607.215C607.573 146.413 609.105 147.51 611.74 147.51C614.376 147.51 616.004 146.372 616.004 144.596C616.004 143.193 615.197 142.438 613.01 141.851L609.589 140.963C606.167 140.075 604.484 138.294 604.484 135.605C604.484 132.232 607.457 129.829 611.74 129.829V129.824Z" fill="#3D3D3D"/>
</g>
<defs>
<linearGradient id="paint0_linear_221_626" x1="141.149" y1="129.546" x2="102.674" y2="158.534" gradientUnits="userSpaceOnUse">
<stop stop-color="white"/>
<stop offset="1" stop-color="#231F20" stop-opacity="0.63"/>
</linearGradient>
<linearGradient id="paint1_linear_221_626" x1="63.8582" y1="76.1558" x2="53.8725" y2="9.99965" gradientUnits="userSpaceOnUse">
<stop stop-color="white"/>
<stop offset="1" stop-color="#28262B"/>
</linearGradient>
<linearGradient id="paint2_linear_221_626" x1="102.244" y1="41.4264" x2="162.03" y2="41.1207" gradientUnits="userSpaceOnUse">
<stop stop-color="white"/>
<stop offset="1" stop-color="#231F20" stop-opacity="0.43"/>
</linearGradient>
<clipPath id="clip0_221_626">
<rect width="173.256" height="172.093" fill="white" transform="translate(24.9534 13.9535)"/>
</clipPath>
<clipPath id="clip1_221_626">
<rect width="392" height="111" fill="white" transform="translate(228 45)"/>
</clipPath>
</defs>
</svg>
