<svg width="120" height="120" viewBox="0 0 120 120" fill="none" xmlns="http://www.w3.org/2000/svg">
<path d="M100 0H20C8.95431 0 0 8.95431 0 20V100C0 111.046 8.95431 120 20 120H100C111.046 120 120 111.046 120 100V20C120 8.95431 111.046 0 100 0Z" fill="url(#paint0_linear_205_349)"/>
<g clip-path="url(#clip0_205_349)">
<path d="M88.2596 21.6385L23.6663 33.3192C22.741 33.5054 21.8614 33.8725 21.0781 34.3992C20.2948 34.9259 19.6231 35.6019 19.1014 36.3885C18.5797 37.1752 18.2184 38.0571 18.038 38.9836C17.8576 39.9101 17.8618 40.8631 18.0503 41.7881L23.6663 72.434C23.8147 73.3665 24.1456 74.2605 24.6401 75.0649C25.1345 75.8693 25.7829 76.5682 26.5479 77.1215C27.313 77.6749 28.1797 78.0719 29.0985 78.2897C30.0172 78.5075 30.9699 78.5419 31.9019 78.3909L96.4952 66.7103C100.317 66.0105 101.878 57.3622 101.878 57.3622L96.4952 27.5955C96.1954 25.7158 95.1612 24.0322 93.6201 22.9151C92.079 21.798 90.1572 21.3388 88.2776 21.6385" fill="white"/>
<path d="M88.1962 30.9785L84.7356 31.6042L89.6237 58.6359L93.0843 58.0102L88.1962 30.9785Z" fill="#3E3D3C"/>
<path d="M83.0019 31.9073L79.5413 32.5331L83.7781 55.9629L87.2387 55.3371L83.0019 31.9073Z" fill="#3E3D3C"/>
<path d="M39.162 39.835L35.7014 40.4608L39.9382 63.8906L43.3988 63.2648L39.162 39.835Z" fill="#3E3D3C"/>
<path d="M74.339 33.4783L70.8784 34.1041L75.1152 57.534L78.5758 56.9082L74.339 33.4783Z" fill="#3E3D3C"/>
<path d="M49.4643 37.9581L44.3792 38.8767L48.6119 62.3073L53.697 61.3886L49.4643 37.9581Z" fill="#3E3D3C"/>
<path d="M60.1989 36.0277L55.1138 36.9463L59.3465 60.3769L64.4317 59.4582L60.1989 36.0277Z" fill="#3E3D3C"/>
<path d="M33.9568 40.7871L32.2795 41.0907L36.5204 64.5198L38.1977 64.2162L33.9568 40.7871Z" fill="#3E3D3C"/>
<path d="M67.7984 34.6781L66.1211 34.9817L70.362 58.4108L72.0393 58.1072L67.7984 34.6781Z" fill="#3E3D3C"/>
<path d="M42.6192 39.2146L40.9419 39.5182L45.1828 62.9473L46.8601 62.6437L42.6192 39.2146Z" fill="#3E3D3C"/>
<path d="M52.8206 37.3719L51.1433 37.6755L55.3842 61.1046L57.0615 60.801L52.8206 37.3719Z" fill="#3E3D3C"/>
<path d="M63.0398 35.5292L61.3625 35.8328L65.6034 59.2618L67.2807 58.9582L63.0398 35.5292Z" fill="#3E3D3C"/>
<path d="M77.7442 32.8793L76.0669 33.1829L80.3078 56.612L81.9851 56.3083L77.7442 32.8793Z" fill="#3E3D3C"/>
<path d="M30.5053 41.3997L27.0447 42.0255L31.9328 69.0572L35.3934 68.4314L30.5053 41.3997Z" fill="#3E3D3C"/>
<path d="M20.0779 90.1254V58.1158C20.0873 56.1265 20.883 54.2217 22.2914 52.8167C23.6997 51.4117 25.6065 50.6206 27.5958 50.6158H94.4678C96.4555 50.6206 98.3604 51.4123 99.7659 52.8178C101.171 54.2233 101.963 56.1282 101.968 58.1158V90.1254C101.963 92.1147 101.172 94.0215 99.767 95.4298C98.362 96.8382 96.4571 97.6339 94.4678 97.6433H27.5779C25.59 97.6292 23.6879 96.832 22.2839 95.4247C20.8799 94.0174 20.0873 92.1133 20.0779 90.1254Z" fill="#3E3D3C"/>
<path d="M61.7942 81.0464H31.7224C30.8309 81.0511 29.9775 81.4086 29.3488 82.0407C28.7201 82.6728 28.3672 83.5281 28.3672 84.4196V85.9268C28.3672 86.8166 28.7207 87.6701 29.3499 88.2993C29.9791 88.9285 30.8326 89.282 31.7224 89.282H61.7942C62.2348 89.282 62.6711 89.1953 63.0782 89.0266C63.4853 88.858 63.8552 88.6109 64.1667 88.2993C64.4783 87.9877 64.7255 87.6179 64.8941 87.2108C65.0627 86.8037 65.1495 86.3674 65.1495 85.9268V84.3658C65.1495 83.4742 64.7966 82.619 64.1678 81.9869C63.5391 81.3548 62.6857 80.9973 61.7942 80.9926" fill="white"/>
</g>
<defs>
<linearGradient id="paint0_linear_205_349" x1="112.332" y1="49.8072" x2="-5.16603" y2="49.8072" gradientUnits="userSpaceOnUse">
<stop stop-color="#FAC214"/>
<stop offset="1" stop-color="#FBDE19"/>
</linearGradient>
<clipPath id="clip0_205_349">
<rect width="84.0251" height="76.1124" fill="white" transform="translate(17.9426 21.5309)"/>
</clipPath>
</defs>
</svg>
