<svg width="120" height="120" viewBox="0 0 120 120" fill="none" xmlns="http://www.w3.org/2000/svg">
<path d="M0 20.6699C0 9.25421 9.25421 0 20.6699 0H99.3301C110.746 0 120 9.25421 120 20.6699V99.3301C120 110.746 110.746 120 99.3301 120H20.6699C9.25421 120 0 110.746 0 99.3301V20.6699Z" fill="url(#paint0_linear_205_394)"/>
<path d="M95.8503 93.4128C95.6375 94.6551 94.4604 95.4891 93.2225 95.2763C93.2225 95.2763 71.9136 89.903 47.777 86.554C24.1878 83.2831 13.6592 81.9061 13.6592 81.9061C12.4214 81.6976 11.3051 80.1295 11.5179 78.8872L17.0732 46.1961C17.286 44.9581 18.4674 44.1197 19.701 44.3326L94.5647 58.68C95.8069 58.8929 96.6408 60.07 96.428 61.308L95.8503 93.4128V93.4128Z" fill="white"/>
<path d="M96.3543 77.8882C96.1067 79.1218 96.0285 82.8879 95.8982 90.9759C95.8982 90.9759 64.013 81.437 43.9245 82.2493C26.5464 82.953 67.7353 69.0399 67.9829 67.8063L41.2185 43.8548C41.4661 42.6212 42.6693 41.8219 43.9028 42.0695L99.2514 54.6273C100.485 54.8749 101.284 56.0782 101.037 57.3118L96.3543 77.8925V77.8882Z" fill="#E5E4E5"/>
<path d="M102.448 85.6158C102.27 86.8624 101.115 87.7312 99.8724 87.5531C99.8724 87.5531 51.304 81.1373 32.9963 83.6524C36.0107 75.1647 36.8229 77.5754 36.9967 76.3331L41.6528 43.4943C41.8309 42.2476 42.9863 41.3789 44.2285 41.557L100.203 50.9308C101.449 51.1089 102.318 52.2643 102.14 53.5067L102.448 85.6158V85.6158Z" fill="white"/>
<path d="M107.943 79.2304C107.943 80.742 106.713 81.9713 105.202 81.9713C105.202 81.9713 65.8199 81.4587 58.0364 81.4761C50.279 81.4935 14.2197 81.9713 14.2197 81.9713C12.7125 81.9713 11.479 80.742 11.479 79.2304V39.3547C11.4833 37.843 12.7169 36.6137 14.2241 36.6137C14.2241 36.6137 24.9915 35.0239 57.0201 35.0239C89.0487 35.0239 105.202 36.6137 105.202 36.6137C106.713 36.6137 107.943 37.843 107.943 39.3547V79.2304Z" fill="#45433E"/>
<defs>
<linearGradient id="paint0_linear_205_394" x1="120" y1="57.2" x2="1.43842e-06" y2="57.2" gradientUnits="userSpaceOnUse">
<stop stop-color="#FBC300"/>
<stop offset="1" stop-color="#FFE000"/>
</linearGradient>
</defs>
</svg>
