<svg width="457" height="189" viewBox="0 0 457 189" fill="none" xmlns="http://www.w3.org/2000/svg">
<path d="M17 115.385V71.67H35.084C42.9879 71.67 48.0889 75.9446 48.0889 82.5767C48.0822 84.8436 47.2842 87.0365 45.8335 88.7742C44.3828 90.5118 42.3712 91.6843 40.1484 92.0879V92.3303C46.069 92.9032 50.204 97.1777 50.204 102.965C50.204 110.655 44.5614 115.385 35.2596 115.385H17ZM24.7869 90.0902H31.9078C37.3454 90.0902 40.3899 87.784 40.3899 83.7298C40.3899 79.9106 37.7699 77.7587 33.1153 77.7587H24.7869V90.0902ZM33.4812 109.296C39.2189 109.296 42.2634 106.902 42.2634 102.414C42.2634 97.9268 39.1238 95.628 33.1519 95.628H24.7869V109.296H33.4812Z" fill="#3D3D3D"/>
<path d="M83.379 115.385H76.1337V109.81H75.98C74.2895 113.718 71.062 115.958 66.2025 115.958C59.2573 115.958 54.8516 111.441 54.8516 104.023V83.2745H62.375V102.51C62.375 107.115 64.6071 109.597 68.8372 109.597C73.1844 109.597 75.8703 106.505 75.8703 101.842V83.2745H83.379V115.385Z" fill="#3D3D3D"/>
<path d="M90.1039 127.195V121.231C90.8326 121.317 91.5659 121.356 92.2995 121.349C95.4098 121.349 97.0126 120.166 97.8542 117.199C97.8542 117.111 98.308 115.502 98.2787 115.414L86.8984 83.2745H95.0878L102.633 108.98H102.75L110.296 83.2745H118.207L106.644 116.656C103.899 124.624 100.372 127.32 93.0606 127.32C92.6434 127.32 90.4991 127.32 90.1332 127.195" fill="#3D3D3D"/>
<path d="M159.996 106.204C159.996 100.512 164.387 97.0821 172.16 96.6047L180.613 96.12V93.8138C180.613 90.45 178.351 88.511 174.641 88.511C171.077 88.511 168.786 90.237 168.332 92.9178H161.358C161.687 86.9246 166.788 82.6354 174.941 82.6354C182.881 82.6354 188.041 86.8438 188.041 93.2997V115.414H180.795V110.273H180.642C178.805 113.754 174.787 115.906 170.681 115.906C164.497 115.906 159.996 111.999 159.996 106.211V106.204ZM180.613 103.494V101.041L173.221 101.496C169.562 101.739 167.512 103.369 167.512 105.903C167.512 108.437 169.708 110.199 172.95 110.199C177.202 110.199 180.613 107.357 180.613 103.479" fill="#3D3D3D"/>
<path d="M215.177 94.7246C214.57 91.302 212.184 88.7241 208.173 88.7241C203.431 88.7241 200.387 92.7269 200.387 99.3296C200.387 106.05 203.46 109.928 208.232 109.928C212.038 109.928 214.511 107.724 215.207 104.111H222.298C221.698 111.294 216.173 116.016 208.144 116.016C198.784 116.016 192.775 109.744 192.775 99.3296C192.775 89.0473 198.813 82.6061 208.144 82.6061C216.59 82.6061 221.815 87.9676 222.327 94.7246H215.177Z" fill="#3D3D3D"/>
<path d="M234.498 96.6636V71.67H226.975V115.385H234.498V104.236" fill="#3D3D3D"/>
<path d="M238.121 99.5647L248.755 115.385H257.442L246.779 99.4178L256.9 83.2745H248.242L238.121 99.5647Z" fill="#3D3D3D"/>
<path d="M276.924 73.7926C275.984 73.7912 275.065 74.0695 274.283 74.5924C273.501 75.1152 272.891 75.8592 272.53 76.73C272.17 77.6009 272.075 78.5595 272.257 79.4846C272.44 80.4098 272.891 81.2598 273.555 81.9271C274.219 82.5945 275.066 83.0492 275.987 83.2337C276.909 83.4182 277.864 83.3243 278.732 82.9637C279.601 82.6032 280.343 81.9922 280.865 81.2082C281.387 80.4242 281.666 79.5023 281.666 78.5592C281.666 77.2963 281.167 76.085 280.278 75.1913C279.388 74.2976 278.182 73.7946 276.924 73.7926" fill="#3D3D3D"/>
<path d="M281.087 85.4998H272.847V115.304H281.087V85.4998Z" fill="#3D3D3D"/>
<path d="M316.721 78.3682C315.538 76.9411 314.033 75.8181 312.33 75.0925C310.04 74.1544 307.579 73.7138 305.107 73.7999H288.443V115.304H296.61V99.8216H305.121C307.588 99.9036 310.046 99.4709 312.337 98.551C314.041 97.8401 315.547 96.7263 316.729 95.3047C317.728 94.0533 318.447 92.6004 318.836 91.0449C319.185 89.6789 319.369 88.2759 319.385 86.8658C319.369 85.4486 319.185 84.0383 318.836 82.6647C318.453 81.098 317.734 79.6342 316.729 78.3755L316.721 78.3682ZM309.11 91.5957C308.476 92.0588 307.765 92.4045 307.01 92.6166C306.268 92.8204 305.503 92.9266 304.734 92.9324H296.61V80.7258H304.843C305.69 80.7211 306.534 80.8097 307.361 80.9902C308.08 81.1547 308.755 81.4756 309.337 81.9303C309.932 82.424 310.397 83.0571 310.691 83.7738C311.066 84.747 311.243 85.786 311.21 86.8291C311.248 87.8417 311.045 88.8489 310.618 89.7669C310.267 90.4919 309.747 91.1217 309.103 91.6031" fill="#3D3D3D"/>
<path d="M415.316 109.208C411.093 109.208 408.458 106.336 407.902 101.261H429.858C429.916 100.527 429.953 99.851 429.953 99.1165C429.953 89.3042 424.193 82.9585 415.316 82.9585C406.439 82.9585 400.613 89.3042 400.613 99.1165C400.613 108.929 406.387 115.275 415.316 115.275C422.473 115.275 427.472 111.382 429.221 104.831H421.807C421.32 106.149 420.429 107.279 419.264 108.06C418.098 108.841 416.716 109.232 415.316 109.179V109.208ZM415.316 89.0251C419.092 89.0251 421.646 91.4635 422.503 95.694H408.107C408.963 91.4635 411.518 89.0251 415.316 89.0251Z" fill="#3D3D3D"/>
<path d="M354.631 8.01469C319.304 8.01469 288.069 29.5489 274.728 60.2492L273.264 63.9215H282.178C282.785 62.6803 283.898 60.2492 283.898 60.2492C296.639 34.2862 324.003 16.3875 354.631 16.3875C397.649 16.3875 438.23 52.8165 438.23 96.1494C438.23 139.482 397.649 173.635 354.631 173.635C322.429 173.635 293.697 153.856 281.79 125.755L272.847 125.792C285.208 158.578 317.79 182 354.631 182C402.201 182 440.191 144.095 440.989 96.1347C441.757 47.9985 402.267 8 354.667 8" fill="#C7D308"/>
<path d="M331.307 73.7926H323.754V115.297H331.307V73.7926Z" fill="#3D3D3D"/>
<path d="M381.834 109.208C377.048 109.208 374.296 105.536 374.296 99.1165C374.296 92.8149 377.114 89.0545 381.834 89.0545C385.611 89.0545 388.165 91.4929 389.014 95.7307H396.259C395.066 87.872 389.672 82.9585 381.834 82.9585C372.898 82.9585 367.124 89.3042 367.124 99.1165C367.124 108.929 372.898 115.275 381.834 115.275C388.984 115.275 393.983 111.382 395.739 104.823H388.326C387.839 106.143 386.95 107.275 385.784 108.057C384.618 108.839 383.236 109.232 381.834 109.179" fill="#3D3D3D"/>
<path d="M362.762 93.5054C362.762 93.5054 362.762 93.4247 362.762 93.3806V92.2863C362.765 92.2325 362.765 92.1785 362.762 92.1247V92.1247C362.762 92.0145 362.762 91.9117 362.762 91.8015C362.765 91.7502 362.765 91.6986 362.762 91.6473C362.425 86.8072 357.097 82.944 350.547 82.8779H350.101C349.761 82.8785 349.421 82.8981 349.083 82.9366C342.402 83.4361 337.103 88.0778 336.642 93.8433C336.609 94.0868 336.589 94.332 336.583 94.5778H344.136L344.187 93.5862C344.207 92.9696 344.374 92.3669 344.675 91.8288C344.976 91.2906 345.401 90.8329 345.914 90.4942C347.378 89.5467 349.442 89.2383 352.04 89.5835C352.656 89.6625 353.257 89.8385 353.818 90.1049C354.318 90.349 354.752 90.709 355.085 91.1552C355.426 91.655 355.593 92.254 355.56 92.8591C355.614 93.4837 355.419 94.1042 355.019 94.5851C354.547 95.0219 353.973 95.3326 353.35 95.4885C352.464 95.7263 351.557 95.8812 350.642 95.9512C349.517 96.0546 348.399 96.2164 347.29 96.4359C345.914 96.5902 344.531 96.8105 343.199 97.0969C341.861 97.3723 340.577 97.8687 339.401 98.5658C338.238 99.2649 337.273 100.251 336.598 101.43C335.834 102.883 335.466 104.512 335.53 106.153C335.502 107.548 335.806 108.93 336.415 110.185C336.977 111.309 337.788 112.289 338.786 113.049C339.801 113.808 340.944 114.378 342.16 114.731C343.444 115.108 344.775 115.296 346.112 115.289C348.03 115.401 349.953 115.228 351.82 114.775C351.82 114.775 354.521 114.173 355.677 113.306V115.245H362.754V96.0834L362.762 93.5054ZM355.18 104.038C355.207 104.836 354.987 105.624 354.55 106.292C354.119 106.932 353.564 107.479 352.918 107.901C352.239 108.316 351.498 108.618 350.723 108.797C349.414 109.117 348.052 109.155 346.727 108.907C346.113 108.809 345.517 108.624 344.956 108.356C344.451 108.115 344.002 107.769 343.638 107.343C343.303 106.929 343.129 106.407 343.148 105.874C343.132 105.227 343.259 104.585 343.521 103.993C343.744 103.515 344.081 103.099 344.502 102.782C344.973 102.445 345.494 102.185 346.046 102.01C346.669 101.812 347.305 101.657 347.949 101.548C349.354 101.291 350.781 101.085 352.201 100.96C353.238 100.88 354.254 100.619 355.202 100.189L355.18 104.038Z" fill="#3D3D3D"/>
<path d="M132.164 110.104H132.01V115.634H124.582V71.4789H132.171V88.7606H132.354C133.265 86.871 134.703 85.2871 136.493 84.2012C138.283 83.1152 140.349 82.5738 142.439 82.6426C150.577 82.6426 155.759 89.0397 155.759 99.4029C155.759 109.766 150.636 116.134 142.439 116.134C137.682 116.134 134.059 113.842 132.193 110.082L132.164 110.104ZM132.157 99.4029C132.157 105.763 135.421 109.898 140.112 109.898C144.993 109.898 148.009 105.859 148.009 99.4029C148.009 92.947 144.957 88.9149 140.112 88.9149C135.421 88.9149 132.157 93.1086 132.157 99.4029Z" fill="#3D3D3D"/>
</svg>
