<svg width="120" height="120" viewBox="0 0 120 120" fill="none" xmlns="http://www.w3.org/2000/svg">
<path d="M100 0H20C8.95431 0 0 8.95431 0 20V100C0 111.046 8.95431 120 20 120H100C111.046 120 120 111.046 120 100V20C120 8.95431 111.046 0 100 0Z" fill="url(#paint0_linear_205_243)"/>
<g clip-path="url(#clip0_205_243)">
<path d="M74.8677 15.7238C74.3076 15.2623 73.6046 15.0099 72.879 15.0096C72.4731 15.0046 72.0702 15.0805 71.694 15.2331C71.3177 15.3856 70.9757 15.6116 70.6877 15.898C70.3998 16.1843 70.1718 16.5252 70.0171 16.9008C69.8623 17.2763 69.7839 17.679 69.7865 18.0852V27.4261C69.7878 27.5399 69.7657 27.6527 69.7215 27.7575C69.6773 27.8624 69.612 27.957 69.5296 28.0355L64.8766 32.6821C64.7964 32.7615 64.7013 32.8242 64.5968 32.8667C64.4923 32.9092 64.3804 32.9306 64.2676 32.9297H55.8275C55.7145 32.9317 55.6024 32.9107 55.4977 32.8682C55.3931 32.8256 55.2981 32.7623 55.2185 32.6821L50.6226 28.0355C50.5435 27.957 50.481 27.8635 50.4385 27.7605C50.396 27.6575 50.3745 27.547 50.3752 27.4356V18.0852C50.3778 17.6782 50.2991 17.2747 50.1438 16.8985C49.9884 16.5224 49.7595 16.181 49.4706 15.8945C49.1817 15.6081 48.8385 15.3822 48.4611 15.2303C48.0838 15.0783 47.6799 15.0033 47.2732 15.0096C46.5505 15.0097 45.8504 15.2623 45.294 15.7238C41.1834 19.0659 41.2214 23.1794 41.2595 28.8829V30.9015C41.2595 34.834 42.9247 41.8326 54.0957 44.4891C54.2899 44.526 54.4657 44.6283 54.5938 44.779C54.7219 44.9297 54.7946 45.1198 54.7998 45.3175V99.7346C54.7998 101.134 55.3552 102.475 56.3438 103.465C57.3324 104.454 58.6733 105.01 60.0714 105.01C61.4695 105.01 62.8103 104.454 63.7989 103.465C64.7875 102.475 65.3428 101.134 65.3428 99.7346V45.2985C65.3509 45.103 65.4235 44.9157 65.5491 44.7659C65.6748 44.616 65.8465 44.512 66.0374 44.4701C77.4559 41.6992 78.6929 34.0532 78.6929 30.892C78.6929 29.9398 78.6929 29.14 78.6929 28.3402C78.769 22.8937 78.8166 18.9612 74.8296 15.7143" fill="#494445"/>
</g>
<defs>
<linearGradient id="paint0_linear_205_243" x1="112.332" y1="49.8072" x2="-5.16603" y2="49.8072" gradientUnits="userSpaceOnUse">
<stop stop-color="#888989"/>
<stop offset="1" stop-color="#D9D9D9"/>
</linearGradient>
<clipPath id="clip0_205_243">
<rect width="37.5" height="90" fill="white" transform="translate(41.25 15)"/>
</clipPath>
</defs>
</svg>
