<svg width="170" height="170" viewBox="0 0 170 170" fill="none" xmlns="http://www.w3.org/2000/svg">
<rect width="170" height="170" rx="36" fill="url(#paint0_linear_406_552)"/>
<path fill-rule="evenodd" clip-rule="evenodd" d="M56.1982 38.8018C56.1982 33.2789 60.6754 28.8018 66.1982 28.8018H103.802C109.324 28.8018 113.802 33.2789 113.802 38.8018V131.198C113.802 136.721 109.324 141.198 103.802 141.198H66.1982C60.6754 141.198 56.1982 136.721 56.1982 131.198V38.8018ZM60.4132 41.0165C60.4132 36.5982 63.9949 33.0165 68.4132 33.0165H85V33.0166H73.0579C73.292 34.1874 74.2521 36.529 76.219 36.529H85V36.5289H93.781C95.7479 36.5289 96.708 34.1873 96.9421 33.0165H101.587C106.005 33.0165 109.587 36.5983 109.587 41.0165V128.983C109.587 133.402 106.005 136.983 101.587 136.983H68.4132C63.9949 136.983 60.4132 133.402 60.4132 128.983V41.0165Z" fill="#3E3E3E"/>
<path fill-rule="evenodd" clip-rule="evenodd" d="M97.5371 73.7603C96.4326 73.7603 95.5371 74.6557 95.5371 75.7603V93.6776C95.5371 94.7822 96.4326 95.6776 97.5371 95.6776H100.562C101.667 95.6776 102.562 94.7822 102.562 93.6776V75.7603C102.562 74.6557 101.667 73.7603 100.562 73.7603H97.5371ZM86.4051 81.8483C86.4051 80.7437 87.3005 79.8483 88.4051 79.8483H91.4299C92.5345 79.8483 93.4299 80.7437 93.4299 81.8483V93.6775C93.4299 94.7821 92.5345 95.6775 91.4299 95.6775H88.4051C87.3005 95.6775 86.4051 94.7821 86.4051 93.6775V81.8483ZM79.2727 84.719C78.1681 84.719 77.2727 85.6144 77.2727 86.719V93.6777C77.2727 94.7822 78.1681 95.6777 79.2727 95.6777H82.2975C83.402 95.6777 84.2975 94.7822 84.2975 93.6777V86.719C84.2975 85.6144 83.402 84.719 82.2975 84.719H79.2727ZM70.1406 87.1544C69.0361 87.1544 68.1406 88.0498 68.1406 89.1544V93.6778C68.1406 94.7823 69.0361 95.6778 70.1406 95.6778H73.1654C74.27 95.6778 75.1654 94.7823 75.1654 93.6778V89.1544C75.1654 88.0498 74.27 87.1544 73.1654 87.1544H70.1406Z" fill="white"/>
<defs>
<linearGradient id="paint0_linear_406_552" x1="85" y1="0" x2="85" y2="170" gradientUnits="userSpaceOnUse">
<stop stop-color="#84FF79"/>
<stop offset="1" stop-color="#3BCB2F"/>
</linearGradient>
</defs>
</svg>
