<svg width="120" height="120" viewBox="0 0 120 120" fill="none" xmlns="http://www.w3.org/2000/svg">
<path d="M100 0H20C8.95431 0 0 8.95431 0 20V100C0 111.046 8.95431 120 20 120H100C111.046 120 120 111.046 120 100V20C120 8.95431 111.046 0 100 0Z" fill="url(#paint0_linear_205_415)"/>
<path fill-rule="evenodd" clip-rule="evenodd" d="M66.1581 92.8054C78.1866 78.4849 90 64.4206 90 50.1832C90 33.6516 76.7364 20.25 60.375 20.25C44.0136 20.25 30.75 33.6516 30.75 50.1832C30.75 64.904 46.1576 83.0128 56.7304 95.4391C58.031 96.9676 59.2584 98.4102 60.375 99.75C62.2759 97.4273 64.2198 95.113 66.1581 92.8054ZM60.6935 63.3796C69.1382 63.3796 75.9839 56.4627 75.9839 47.9302C75.9839 39.3977 69.1382 32.4808 60.6935 32.4808C52.2489 32.4808 45.4032 39.3977 45.4032 47.9302C45.4032 56.4627 52.2489 63.3796 60.6935 63.3796Z" fill="white"/>
<defs>
<linearGradient id="paint0_linear_205_415" x1="127.269" y1="69.9356" x2="7.64268" y2="69.9356" gradientUnits="userSpaceOnUse">
<stop stop-color="#623F92"/>
<stop offset="1" stop-color="#954493"/>
</linearGradient>
</defs>
</svg>
